# xmcd
#
# Track frame offsets:
#	150
#	14774
#	25757
#	40488
#	53073
#	64380
#	75686
#	85761
#	98114
#	112200
#	123615
#	133499
#	147318
#	162825
#	176055
#	188605
#	201868
#	214727
#
# Disc length: 3016 seconds
#
# Revision: 0
# Processed by: cddbd v1.4PL0 Copyright (c) Steve Scherf et al.
# Submitted via: EasyCDDAExtractor 4.6.9.1
#
DISCID=0f0bc612
DTITLE=Various Artist - Cowboys and Cowgirls  CD 1
DYEAR=1900
DGENRE=Country
TTITLE0=The Bellamy Brothers -  Let You Love Flow
TTITLE1=Tammy Wynette -  Take Me To Your World
TTITLE2=John Denver -  Take Me Home, Country Roads
TTITLE3=Susan Ray -  L.A. International Airport
TTITLE4=Don Gibson -  Sea Of Heartbreak
TTITLE5=Donna Fargo -  The Happiest Girl In The Whole USA
TTITLE6=Jim Reeves  - He'll Have To Go
TTITLE7=Barbara Mandell - Midnight Oil
TTITLE8=Stonewall Jackson - Don't Be Angry
TTITLE9=Lynn Anderson - Listen To A Country Song
TTITLE10=Boxcar Willie - Blue Moon Of Kentucky
TTITLE11=Jane Fricke - Somebody's Else's Fire
TTITLE12=Cal Smith - Country Bumpkin
TTITLE13=Dottie West - Blue Fiddle Waltz
TTITLE14=Freddy Fender - Silver Wings
TTITLE15=Tanya Tucker - Jamestown Ferry
TTITLE16=Johnny Darrell - The Son Of Hickory Hollers Tramp
TTITLE17=Patsy Cline - In Care Of The Blues
EXTD=
EXTT0=
EXTT1=
EXTT2=
EXTT3=
EXTT4=
EXTT5=
EXTT6=
EXTT7=
EXTT8=
EXTT9=
EXTT10=
EXTT11=
EXTT12=
EXTT13=
EXTT14=
EXTT15=
EXTT16=
EXTT17=
PLAYORDER=
